HIERARCHY
ROOT SimulationBone
{
	OFFSET 0.000000 0.000000 0.000000
	CHANNELS 6 Xposition Yposition Zposition Zrotation Yrotation Xrotation 
	JOINT Hips
	{
		OFFSET 0.000000 0.000000 0.000000
		CHANNELS 6 Xposition Yposition Zposition Zrotation Yrotation Xrotation 
		JOINT LeftUpLeg
		{
			OFFSET 0.103457 1.857822 10.548516
			CHANNELS 3 Zrotation Yrotation Xrotation
			JOINT LeftLeg
			{
				OFFSET 43.500008 -0.000031 0.000015
				CHANNELS 3 Zrotation Yrotation Xrotation
				JOINT LeftFoot
				{
					OFFSET 42.372192 0.000027 -0.000009
					CHANNELS 3 Zrotation Yrotation Xrotation
					JOINT LeftToe
					{
						OFFSET 17.299999 0.000000 -0.000004
						CHANNELS 3 Zrotation Yrotation Xrotation
						End Site
						{
							OFFSET 0.000000 0.000000 0.000000
						}
					}
				}
			}
		}
		JOINT RightUpLeg
		{
			OFFSET 0.103460 1.857822 -10.548513
			CHANNELS 3 Zrotation Yrotation Xrotation
			JOINT RightLeg
			{
				OFFSET 43.500038 -0.000015 -0.000002
				CHANNELS 3 Zrotation Yrotation Xrotation
				JOINT RightFoot
				{
					OFFSET 42.372269 -0.000019 0.000014
					CHANNELS 3 Zrotation Yrotation Xrotation
					JOINT RightToe
					{
						OFFSET 17.300005 -0.000001 0.000011
						CHANNELS 3 Zrotation Yrotation Xrotation
						End Site
						{
							OFFSET 0.000000 0.000000 0.000000
						}
					}
				}
			}
		}
		JOINT Spine
		{
			OFFSET 6.901966 -2.603743 -0.000003
			CHANNELS 3 Zrotation Yrotation Xrotation
			JOINT Spine1
			{
				OFFSET 12.588103 0.000012 0.000008
				CHANNELS 3 Zrotation Yrotation Xrotation
				JOINT Spine2
				{
					OFFSET 12.343199 0.000004 0.000007
					CHANNELS 3 Zrotation Yrotation Xrotation
					JOINT Neck
					{
						OFFSET 25.832901 -0.000008 -0.000001
						CHANNELS 3 Zrotation Yrotation Xrotation
						JOINT Head
						{
							OFFSET 11.766611 0.000029 -0.000004
							CHANNELS 3 Zrotation Yrotation Xrotation
							End Site
							{
								OFFSET 0.000000 0.000000 0.000000
							}
						}
					}
					JOINT LeftShoulder
					{
						OFFSET 19.745907 -1.480370 6.000077
						CHANNELS 3 Zrotation Yrotation Xrotation
						JOINT LeftArm
						{
							OFFSET 11.284128 -0.000004 -0.000015
							CHANNELS 3 Zrotation Yrotation Xrotation
							JOINT LeftForeArm
							{
								OFFSET 33.000065 0.000010 0.000016
								CHANNELS 3 Zrotation Yrotation Xrotation
								JOINT LeftHand
								{
									OFFSET 25.200001 0.000010 0.000006
									CHANNELS 3 Zrotation Yrotation Xrotation
									End Site
									{
										OFFSET 0.000000 0.000000 0.000000
									}
								}
							}
						}
					}
					JOINT RightShoulder
					{
						OFFSET 19.746094 -1.480385 -6.000086
						CHANNELS 3 Zrotation Yrotation Xrotation
						JOINT RightArm
						{
							OFFSET 11.284142 -0.000011 -0.000013
							CHANNELS 3 Zrotation Yrotation Xrotation
							JOINT RightForeArm
							{
								OFFSET 33.000092 0.000004 0.000015
								CHANNELS 3 Zrotation Yrotation Xrotation
								JOINT RightHand
								{
									OFFSET 25.199759 0.000141 0.000412
									CHANNELS 3 Zrotation Yrotation Xrotation
									End Site
									{
										OFFSET 0.000000 0.000000 0.000000
									}
								}
							}
						}
					}
				}
			}
		}
	}
}
MOTION
Frames: 6
Frame Time: 0.016667
-19.259535 0.000000 -594.445248 0.000000 178.879440 0.000000 -1.951061 94.186527 -1.345151 88.685278 -1.046055 -178.692533 -176.491112 -5.824913 169.611959 -47.699202 -0.424813 3.793605 66.915410 -4.997619 -6.075679 21.454556 0.003091 0.000001 174.755334 -3.330315 -174.576895 -18.733365 1.892005 0.091009 79.268844 -0.993501 -3.301889 21.454557 -0.003108 -0.000017 7.036319 0.982410 -1.180971 4.040046 2.004929 -2.327655 3.722019 1.990975 -2.339713 3.103273 14.733853 2.495229 -17.765105 -7.606838 7.418276 -158.297655 -83.334995 -23.525272 -0.850239 63.769985 46.813113 -54.513745 -16.425890 1.996202 3.861381 -27.377096 -4.872969 -167.198529 72.956608 14.529324 4.719153 -57.979843 -21.141565 -65.912173 19.619303 -2.676835 4.981902 9.887313 -18.327491 
-21.165698 0.000000 -594.565724 0.000000 178.507148 0.000000 -2.108599 94.094856 -1.346816 88.544062 -0.996446 -179.073425 -178.316022 -5.855300 169.588707 -48.790984 -0.849863 2.891771 69.932598 -3.885721 -5.342296 21.454555 0.003092 0.000001 175.596978 -3.352004 -174.692989 -19.008147 1.943325 -0.346122 79.834542 -0.678545 -3.326753 21.454557 -0.003108 -0.000017 7.132384 0.980229 -1.100675 4.233670 1.999597 -2.165438 3.915604 1.986622 -2.177469 2.743816 15.307829 2.742137 -18.857326 -7.969871 8.032787 -159.440709 -83.055665 -22.374306 4.236090 61.805936 52.692158 -56.197358 -16.071731 2.032523 1.566196 -28.404982 -1.988914 -167.546629 73.181348 14.171189 2.279400 -56.708777 -19.076162 -70.531777 17.678577 -2.736978 3.395686 7.387337 -23.502940 
-23.075026 0.000000 -594.660299 0.000000 178.126871 0.000000 -2.288963 93.934545 -1.332684 88.398250 -0.960394 -179.472498 179.754060 -5.806859 170.144922 -49.713968 -1.546591 1.687217 72.584162 -2.584621 -4.485318 21.454549 0.003093 0.000001 176.438540 -3.364509 -174.812680 -19.276473 1.968801 -0.747466 80.517182 -0.421437 -3.501504 21.454557 -0.003108 -0.000017 7.226180 0.960812 -1.001493 4.423343 1.958783 -1.966150 4.105255 1.947012 -1.977939 2.607526 15.943962 2.916894 -20.094791 -8.432877 8.617578 -159.062043 -82.898804 -22.759620 8.851514 59.689220 57.913488 -58.585694 -15.593637 2.085424 -0.313693 -29.621726 1.292126 -167.233019 73.418102 14.492685 -0.264248 -55.494119 -16.847544 -75.239617 15.492602 -2.788630 1.605664 5.675814 -29.832859 
-24.995602 0.000000 -594.730176 0.000000 177.744640 0.000000 -2.494491 93.739372 -1.297198 88.249406 -0.915906 -179.875365 177.689065 -5.634094 170.957463 -50.447097 -2.115164 0.509566 75.075096 -1.283543 -3.342674 21.454545 0.003093 -0.000000 177.336409 -3.360505 -175.006303 -19.425557 2.022142 -1.106355 81.217164 -0.193992 -3.680809 21.454558 -0.003108 -0.000017 7.323342 0.935503 -0.881939 4.620105 1.905106 -1.726377 4.301989 1.894784 -1.737846 2.530413 16.415571 3.035351 -21.324073 -8.788448 9.082649 -156.610483 -82.832912 -25.239879 12.761823 57.553658 62.195339 -61.399629 -14.886530 2.143264 -1.851516 -30.668081 4.018126 -167.062082 73.732728 14.667315 -2.639738 -54.386554 -14.337359 -79.887790 13.145000 -2.820264 -0.459057 4.382804 -36.647690 
-26.936895 0.000000 -594.778786 0.000000 177.366471 0.000000 -2.722874 93.537873 -1.234811 88.100557 -0.832890 179.737472 175.470304 -5.330633 171.683388 -50.986251 -2.175565 -0.374950 77.545821 -0.188722 -1.895610 21.454547 0.003093 -0.000000 178.330184 -3.339828 -175.317150 -19.385866 2.147999 -1.429352 81.845725 0.037469 -3.721644 21.454557 -0.003108 -0.000017 7.430128 0.919495 -0.740661 4.836274 1.868836 -1.442730 4.518103 1.860227 -1.453986 2.345245 16.486607 3.117197 -22.409635 -8.826954 9.331151 -151.815293 -82.771061 -30.089883 15.875721 55.549627 65.407685 -64.356847 -13.889706 2.190539 -3.229850 -31.305733 5.487126 -167.845672 74.183446 13.862570 -4.588791 -53.427633 -11.438559 -84.300151 10.720464 -2.840526 -2.675959 3.089352 -43.150928 
-28.908816 0.000000 -594.811234 0.000000 176.997017 0.000000 -2.965011 93.332848 -1.150158 87.958224 -0.701982 179.415315 173.147577 -4.958694 172.450146 -51.298760 -1.910341 -0.907047 79.754007 0.548076 -0.550238 21.454551 0.003092 -0.000000 179.422635 -3.316894 -175.619559 -19.185742 2.312358 -1.749145 82.356993 0.287467 -3.647779 21.454558 -0.003108 -0.000017 7.543579 0.920530 -0.564947 5.066114 1.864672 -1.089474 4.747886 1.858195 -1.100713 2.071164 16.172358 3.101733 -23.376785 -8.616533 9.318036 -146.185072 -82.778264 -35.781010 18.429246 53.828449 67.794960 -67.196247 -12.717002 2.220062 -4.298702 -31.338645 6.055066 -168.993373 74.752592 12.685921 -6.059178 -52.757335 -8.120364 -88.275427 8.190365 -2.843084 -4.620310 1.820869 -48.247277 
